<?xml version="1.0" encoding="utf-8"?>
<!-- Generator: Adobe Illustrator 19.1.0, SVG Export Plug-In . SVG Version: 6.00 Build 0)  -->
<!DOCTYPE svg PUBLIC "-//W3C//DTD SVG 1.1//EN" "http://www.w3.org/Graphics/SVG/1.1/DTD/svg11.dtd">
<svg version="1.1" id="Layer_1" xmlns="http://www.w3.org/2000/svg" xmlns:xlink="http://www.w3.org/1999/xlink" x="0px" y="0px"
	 viewBox="0 0 310.5 65.3" style="enable-background:new 0 0 310.5 65.3;" xml:space="preserve">
<style type="text/css">
	.st0{fill:#EEEEEE;}
	.st1{fill:url(#SVGID_1_);}
	.st2{fill:url(#SVGID_2_);}
	.st3{fill:url(#SVGID_3_);}
	.st4{fill:url(#SVGID_4_);}
	.st5{fill:url(#SVGID_5_);}
	.st6{fill:url(#SVGID_6_);}
</style>
<g>
	<path class="st0" d="M124.5,29.6h-11.8V63h-8.6V29.6H92.4v-8.5h32.1V29.6z"/>
	<path class="st0" d="M159.2,63h-28.7V21.1h28.7v8.5h-20.2v7.9h17.6v8.1h-17.6v9h20.2V63z"/>
	<path class="st0" d="M201.2,63H191L182,48.7L173,63h-10.2l14.3-21.5l-13.6-20.3h10.3l8.2,13.1l8.2-13.1h10.2l-13.5,20.3L201.2,63z"
		/>
	<path class="st0" d="M235.7,29.6H224V63h-8.6V29.6h-11.8v-8.5h32.1V29.6z"/>
	<path class="st0" d="M273.2,42.1c0,6.2-1.3,11.1-4,14.9c-3.1,4.4-7.6,6.5-13.5,6.5s-10.4-2.2-13.5-6.5c-2.7-3.8-4-8.7-4-14.9
		c0-6.2,1.3-11.1,4-14.9c3.1-4.4,7.6-6.5,13.5-6.5s10.4,2.2,13.5,6.5C271.8,31,273.2,35.9,273.2,42.1z M264.5,42.1
		c0-8.6-3-13-8.9-13s-8.9,4.3-8.9,13c0,8.6,3,13,8.9,13S264.5,50.7,264.5,42.1z"/>
	<path class="st0" d="M310.5,50.2c0,4.1-1.6,7.4-4.9,10c-3,2.3-6.6,3.5-10.9,3.5c-9.1,0-14.7-4.2-16.9-12.7l8.1-1.6
		c1.2,4.1,4.1,6.2,8.8,6.2c1.8,0,3.4-0.4,4.7-1.3c1.6-1,2.4-2.3,2.4-4c0-2-2-3.5-5.9-4.5c-6.2-1.7-9.9-2.8-11-3.4
		c-3.9-2-5.9-5.2-5.9-9.5c0-3.8,1.5-6.9,4.5-9.1c2.7-2,6-3,10-3c3.8,0,7,0.8,9.5,2.3c2.5,1.5,4.5,4,6.2,7.3l-7.4,3.4
		c-1-1.8-2.1-3.1-3.4-3.9c-1.2-0.8-2.9-1.2-4.9-1.2c-1.4,0-2.7,0.3-3.8,0.9c-1.4,0.8-2.1,1.8-2.1,3.2c0,1.6,2,2.9,5.9,4
		c5.7,1.5,9.4,2.7,11,3.6C308.5,42.5,310.5,45.8,310.5,50.2z"/>
</g>
<g>
	<linearGradient id="SVGID_1_" gradientUnits="userSpaceOnUse" x1="-1.946155e-07" y1="30.1756" x2="32.3026" y2="30.1756">
		<stop  offset="0" style="stop-color:#B2D235"/>
		<stop  offset="1" style="stop-color:#FFFFFF"/>
	</linearGradient>
	<path class="st1" d="M27.2,12.3c0,0-4.1-4.5-9.8-3.6c-5.7,0.9-9.1,5.6-8.9,11c0.7,15.9,13.1,29.9,16.2,33l-5.1,6
		c0,0-10.9-10.6-15-20.8c-4.1-10.2-6.9-23-2.4-30c4.6-7.1,12.9-6.4,17.5-6c8.6,0.9,12.6,4.9,12.6,4.9L27.2,12.3z"/>
	<linearGradient id="SVGID_2_" gradientUnits="userSpaceOnUse" x1="4.3495" y1="53.59" x2="43.4074" y2="53.59">
		<stop  offset="0" style="stop-color:#B2D235"/>
		<stop  offset="1" style="stop-color:#FFFFFF"/>
	</linearGradient>
	<path class="st2" d="M43.4,51.5c0,0-4.1-6.6-8.4-7.6c-3.1-0.7-7.2,0.1-10.7,4.1c-3.5,4-4.6,7.9-9.1,8.8c-3,0.6-4.5-2.4-3.5-4.7
		c1.2-3,3.2-3.3,3.2-3.3l-4.1-6.1c0,0-8.4,6.1-6,13.8c2.3,7.7,8.8,9.2,13.4,7.3c9.2-3.8,8.8-10,12.2-11.9c3.5-2,7.2,4.7,7.2,4.7
		L43.4,51.5z"/>
	<linearGradient id="SVGID_3_" gradientUnits="userSpaceOnUse" x1="23.4349" y1="52.7156" x2="51.9083" y2="52.7156">
		<stop  offset="0" style="stop-color:#B2D235"/>
		<stop  offset="1" style="stop-color:#FFFFFF"/>
	</linearGradient>
	<path class="st3" d="M45.7,40.1c0,0-3.6,5.1-10.2,14.5c-1.1,1.6-2.8,3.1-4.3,2.4c-2.1-0.9-3.5-2.1-3.5-2.1s-1.7,2.6-2.5,3.6
		c-0.8,1-1.8,1.9-1.8,1.9s4.1,4.7,7.3,4.9c6.7,0.4,10.3-5,12.6-8.4c1.6-2.3,8.6-12.2,8.6-12.2L45.7,40.1z"/>
	<linearGradient id="SVGID_4_" gradientUnits="userSpaceOnUse" x1="13.9036" y1="27.2354" x2="42.375" y2="27.2354">
		<stop  offset="0" style="stop-color:#B2D235"/>
		<stop  offset="1" style="stop-color:#FFFFFF"/>
	</linearGradient>
	<path class="st4" d="M31.4,12.2c0,0,3.5,3.1,3.5,7.7c0,6.5-21,19.4-21,19.4l4.8,6.8c0,0,17.1-12.7,20.6-17.4
		c3.5-4.8,3.8-9.7,1.9-15c-0.8-2.2-4.1-5.4-4.1-5.4L31.4,12.2z"/>
	<linearGradient id="SVGID_5_" gradientUnits="userSpaceOnUse" x1="20.6746" y1="21.63" x2="61.659" y2="21.63">
		<stop  offset="0" style="stop-color:#B2D235"/>
		<stop  offset="1" style="stop-color:#FFFFFF"/>
	</linearGradient>
	<path class="st5" d="M45.7,39c0,0,7.4-14.7,8.1-19.6c0.8-4.9,0.4-6.5-3.7-9.2c-4.1-2.7-5.5-3.6-11.4-0.2c-5.5,3.2-9.8,7.1-9.4,9.9
		c0.6,3.8,2.4,5.7,2.4,5.7s-1.4,1.5-2,2c-0.6,0.6-4.2,3.5-4.2,3.5s-4.4-3.5-4.9-10.8c-0.4-6,2.9-11.1,11.5-16.8
		c8.6-5.7,18.6-3.2,22.5-1s7.6,7.7,6.8,14.7c-1.5,13.5-9.6,26.1-9.6,26.1L45.7,39z"/>
	<linearGradient id="SVGID_6_" gradientUnits="userSpaceOnUse" x1="30.1457" y1="46.8273" x2="60.0669" y2="46.8273">
		<stop  offset="0" style="stop-color:#B2D235"/>
		<stop  offset="1" style="stop-color:#FFFFFF"/>
	</linearGradient>
	<path class="st6" d="M30.1,34.5c0,0,12.8,9.1,16.8,12.1c4,3.1,6.1,4.9,4.6,7.6c-1.3,2.4-6-0.8-6-0.8L41.2,60
		c0,0,13.4,10.1,17.8-0.8c3.5-8.7-2.3-14.1-6.1-17.7c-3.7-3.5-11.2-8-13.1-9.4c-1.9-1.4-3.8-2.7-3.8-2.7L34.3,31L30.1,34.5z"/>
</g>
</svg>
