<?xml version="1.0" encoding="utf-8"?>
<!-- Generator: Adobe Illustrator 19.1.0, SVG Export Plug-In . SVG Version: 6.00 Build 0)  -->
<!DOCTYPE svg PUBLIC "-//W3C//DTD SVG 1.1//EN" "http://www.w3.org/Graphics/SVG/1.1/DTD/svg11.dtd">
<svg version="1.1" id="Layer_1" xmlns="http://www.w3.org/2000/svg" xmlns:xlink="http://www.w3.org/1999/xlink" x="0px" y="0px"
	 viewBox="0 0 421.9 65" style="enable-background:new 0 0 421.9 65;" xml:space="preserve">
<style type="text/css">
	.st0{fill:url(#SVGID_1_);}
	.st1{fill:url(#SVGID_2_);}
	.st2{fill:url(#SVGID_3_);}
	.st3{fill:url(#SVGID_4_);}
	.st4{fill:url(#SVGID_5_);}
	.st5{fill:url(#SVGID_6_);}
	.st6{fill:url(#SVGID_7_);}
	.st7{fill:url(#SVGID_8_);}
	.st8{fill:url(#SVGID_9_);}
	.st9{fill:url(#SVGID_10_);}
	.st10{fill:url(#SVGID_11_);}
	.st11{fill:#EEEEEE;}
</style>
<g>
	<g>
		<linearGradient id="SVGID_1_" gradientUnits="userSpaceOnUse" x1="0" y1="32.5179" x2="73.1141" y2="32.5179">
			<stop  offset="0" style="stop-color:#B2421A"/>
			<stop  offset="1" style="stop-color:#FFFFFF"/>
		</linearGradient>
		<polygon class="st0" points="16.9,64.9 0,32.3 17.9,0 55.8,0.2 73.1,32.8 55.5,65 		"/>
		<g>
			<linearGradient id="SVGID_2_" gradientUnits="userSpaceOnUse" x1="27.0281" y1="31.6056" x2="61.4722" y2="31.6056">
				<stop  offset="0" style="stop-color:#B2421A"/>
				<stop  offset="1" style="stop-color:#FFFFFF"/>
			</linearGradient>
			<polygon class="st1" points="27,51.5 27.3,11.7 61.5,32.1 			"/>
			<linearGradient id="SVGID_3_" gradientUnits="userSpaceOnUse" x1="44.2406" y1="32.1348" x2="44.2406" y2="1.021008e-07">
				<stop  offset="0" style="stop-color:#B2421A"/>
				<stop  offset="1" style="stop-color:#FFFFFF"/>
			</linearGradient>
			<polygon class="st2" points="55.7,0 27,11.7 61.5,32.1 			"/>
			<linearGradient id="SVGID_4_" gradientUnits="userSpaceOnUse" x1="36.8205" y1="11.7091" x2="36.8205" y2="1.017679e-07">
				<stop  offset="0" style="stop-color:#B2421A"/>
				<stop  offset="1" style="stop-color:#FFFFFF"/>
			</linearGradient>
			<polygon class="st3" points="55.7,0 27,11.7 17.9,0 			"/>
			<linearGradient id="SVGID_5_" gradientUnits="userSpaceOnUse" x1="55.7297" y1="16.3538" x2="73.2742" y2="16.3538">
				<stop  offset="0" style="stop-color:#B2421A"/>
				<stop  offset="1" style="stop-color:#FFFFFF"/>
			</linearGradient>
			<polygon class="st4" points="55.7,0 73.3,32.7 61.5,32.1 			"/>
			<linearGradient id="SVGID_6_" gradientUnits="userSpaceOnUse" x1="76.4394" y1="38.1898" x2="49.1287" y2="53.9576">
				<stop  offset="0" style="stop-color:#B2421A"/>
				<stop  offset="1" style="stop-color:#FFFFFF"/>
			</linearGradient>
			<polygon class="st5" points="55.5,65 73.3,32.7 61.5,32.1 			"/>
			<linearGradient id="SVGID_7_" gradientUnits="userSpaceOnUse" x1="0" y1="31.6056" x2="27.2929" y2="31.6056">
				<stop  offset="0" style="stop-color:#B2421A"/>
				<stop  offset="1" style="stop-color:#FFFFFF"/>
			</linearGradient>
			<polygon class="st6" points="27,51.5 27.3,11.7 0,32.3 			"/>
			<linearGradient id="SVGID_8_" gradientUnits="userSpaceOnUse" x1="13.6465" y1="32.3099" x2="13.6465" y2="4.734510e-02">
				<stop  offset="0" style="stop-color:#B2421A"/>
				<stop  offset="1" style="stop-color:#FFFFFF"/>
			</linearGradient>
			<polygon class="st7" points="17.9,0 27.3,11.7 0,32.3 			"/>
			<linearGradient id="SVGID_9_" gradientUnits="userSpaceOnUse" x1="44.2502" y1="64.9884" x2="44.2502" y2="32.1439">
				<stop  offset="0" style="stop-color:#B2421A"/>
				<stop  offset="1" style="stop-color:#FFFFFF"/>
			</linearGradient>
			<polygon class="st8" points="27,51.5 61.5,32.1 55.5,65 			"/>
			<linearGradient id="SVGID_10_" gradientUnits="userSpaceOnUse" x1="36.1768" y1="64.9884" x2="36.1768" y2="51.5022">
				<stop  offset="0" style="stop-color:#B2421A"/>
				<stop  offset="1" style="stop-color:#FFFFFF"/>
			</linearGradient>
			<polygon class="st9" points="27,51.5 16.9,64.9 55.5,65 			"/>
			<linearGradient id="SVGID_11_" gradientUnits="userSpaceOnUse" x1="13.5141" y1="64.893" x2="13.5141" y2="32.3099">
				<stop  offset="0" style="stop-color:#B2421A"/>
				<stop  offset="1" style="stop-color:#FFFFFF"/>
			</linearGradient>
			<polygon class="st10" points="27,51.5 16.9,64.9 0,32.3 			"/>
		</g>
	</g>
</g>
<g>
	<g>
		<g>
			<path class="st11" d="M115.9,63.1h-8.6V21.2h8.6V63.1z"/>
		</g>
		<g>
			<path class="st11" d="M155.7,55.9c-2.5,2.9-4.6,4.9-6.5,5.9c-2.2,1.2-5,1.9-8.5,1.9c-5.9,0-10.5-2.2-13.8-6.5
				c-3-3.9-4.4-8.9-4.4-15c0-6.1,1.5-11.1,4.4-15c3.2-4.3,7.8-6.5,13.7-6.5c3.2,0,6,0.6,8.2,1.7s4.4,3,6.5,5.5l-6.1,5.9
				c-2.8-3.2-5.7-4.7-8.7-4.7c-3.3,0-5.7,1.4-7.4,4.3c-1.4,2.3-2,5.2-2,8.8c0,3.5,0.7,6.4,2,8.8c1.6,2.8,4.1,4.3,7.4,4.3
				c3.2,0,6.2-1.7,9-5.2L155.7,55.9z"/>
		</g>
		<g>
			<path class="st11" d="M193.9,42.2c0,6.2-1.3,11.1-4,14.9c-3.1,4.4-7.6,6.5-13.5,6.5s-10.4-2.2-13.5-6.5c-2.7-3.8-4-8.7-4-14.9
				c0-6.2,1.3-11.1,4-14.9c3.1-4.4,7.6-6.5,13.5-6.5s10.4,2.2,13.5,6.5C192.5,31.1,193.9,36,193.9,42.2z M185.2,42.2
				c0-8.6-3-13-8.9-13s-8.9,4.3-8.9,13c0,8.6,3,13,8.9,13S185.2,50.8,185.2,42.2z"/>
		</g>
		<g>
			<path class="st11" d="M231.2,50.3c0,4.1-1.6,7.4-4.9,10c-3,2.3-6.6,3.5-10.9,3.5c-9.1,0-14.7-4.2-16.9-12.7l8.1-1.6
				c1.2,4.1,4.1,6.2,8.8,6.2c1.8,0,3.4-0.4,4.7-1.3c1.6-1,2.4-2.3,2.4-4c0-2-2-3.5-5.9-4.5c-6.2-1.7-9.9-2.8-11-3.4
				c-3.9-2-5.9-5.2-5.9-9.5c0-3.8,1.5-6.9,4.5-9.1c2.7-2,6-3,10-3c3.8,0,7,0.8,9.5,2.3c2.5,1.5,4.5,4,6.2,7.3l-7.4,3.4
				c-1-1.8-2.1-3.1-3.4-3.9c-1.2-0.8-2.9-1.2-4.9-1.2c-1.4,0-2.7,0.3-3.8,0.9c-1.4,0.8-2.1,1.8-2.1,3.2c0,1.6,2,2.9,5.9,4
				c5.7,1.5,9.4,2.7,11,3.6C229.2,42.6,231.2,45.9,231.2,50.3z"/>
		</g>
		<g>
			<path class="st11" d="M272.4,63.1h-9.3l-3.8-10.5h-13.6l-3.8,10.5h-9.2l16.1-41.9h7.4L272.4,63.1z M256.5,45.1l-4.1-11.2l-4,11.2
				H256.5z"/>
		</g>
		<g>
			<path class="st11" d="M305.3,63.1h-28.7V21.2h28.7v8.5h-20.2v7.9h17.6v8.1h-17.6v9h20.2V63.1z"/>
		</g>
		<g>
			<path class="st11" d="M344.3,42.2c0,8.1-1.3,13.5-3.9,16.4c-2.8,3-8.1,4.6-16.1,4.6h-11.8V21.2h11.8c8,0,13.3,1.5,16.1,4.5
				C343,28.6,344.3,34.1,344.3,42.2z M335.7,45.1v-5.8c0-3.9-0.6-6.5-1.8-7.7c-1.2-1.2-3.8-1.9-7.7-1.9h-5.2v25h5.2
				c3.9,0,6.4-0.6,7.6-1.9C335.1,51.6,335.7,49,335.7,45.1z"/>
		</g>
		<g>
			<path class="st11" d="M384.9,63.1h-10l-8.4-14c-0.7-1.2-1.3-1.9-1.8-2.3c-0.5-0.4-1.4-0.5-2.6-0.5h-2.1v16.9h-8.6V21.2h15.4
				c4.3,0,7.8,1,10.3,3.1c2.8,2.2,4.2,5.5,4.2,9.7c0,2.6-0.7,4.9-2.1,6.9c-1.4,2-3.3,3.5-5.8,4.4L384.9,63.1z M372.8,34
				c0-3-2-4.5-5.9-4.5h-7v9.2h7C370.9,38.7,372.8,37.1,372.8,34z"/>
		</g>
		<g>
			<path class="st11" d="M421.9,42.2c0,6.2-1.3,11.1-4,14.9c-3.1,4.4-7.6,6.5-13.5,6.5s-10.4-2.2-13.5-6.5c-2.7-3.8-4-8.7-4-14.9
				c0-6.2,1.3-11.1,4-14.9c3.1-4.4,7.6-6.5,13.5-6.5s10.4,2.2,13.5,6.5C420.6,31.1,421.9,36,421.9,42.2z M413.3,42.2
				c0-8.6-3-13-8.9-13s-8.9,4.3-8.9,13c0,8.6,3,13,8.9,13S413.3,50.8,413.3,42.2z"/>
		</g>
	</g>
</g>
</svg>
