<?xml version="1.0" encoding="UTF-8"?>
<!-- Generator: Adobe Illustrator 19.1.0, SVG Export Plug-In . SVG Version: 6.00 Build 0)  -->
<!DOCTYPE svg PUBLIC "-//W3C//DTD SVG 1.1//EN" "http://www.w3.org/Graphics/SVG/1.1/DTD/svg11.dtd">
<svg version="1.1" id="Layer_1" xmlns="http://www.w3.org/2000/svg" xmlns:xlink="http://www.w3.org/1999/xlink" x="0px" y="0px" viewBox="0 0 378.232 99.213" enable-background="new 0 0 378.232 99.213" xml:space="preserve">
<g id="XMLID_6_">
	<g id="XMLID_5_">
		<g id="XMLID_3_">
			<path fill="#FFFFFF" d="M50.14,34.421v14.775c0,13.226-8.981,22.306-22.401,22.306c-3.286,0-4.925-0.582-6.855-0.582     c-0.774,0-1.16,0.385-1.16,1.061v22.31c0,0.381-0.676,2.119,4.052,2.119h1.16c1.065,0,1.643,0.291,1.643,0.774     c0,0.774-0.869,1.16-2.7,1.16H4.856c-1.065,0-1.545-0.385-1.545-1.065c0-0.287,0.963-0.48,2.991-0.77l3.089-0.385     c0.676-0.098,1.45-0.774,1.45-4.827V52.285c0-9.371,4.056-21.827,21.917-21.827c5.507,0,10.043,2.417,12.071,2.417     c1.934,0,3.577-2.61,4.827-2.61c0.483,0,0.676,0.291,0.676,0.869C50.333,31.815,50.14,33.745,50.14,34.421 M30.542,32.294     c-4.638,0-10.817,4.638-10.817,16.127V59.62c0,4.732-0.193,9.657,8.4,9.657c8.113,0,12.841-5.306,12.841-18.729     C40.966,34.708,37.782,32.294,30.542,32.294"/>
			<path fill="#FFFFFF" d="M104.879,70.923c-5.507,0-7.728-4.06-8.498-6.666c-1.262,2.606-6.666,7.15-12.653,7.15     c-12.362,0-22.019-7.92-22.019-20.573c0-8.494,6.281-20.663,22.404-20.663c9.563,0,21.441,5.99,21.441,23.077v8.887     c0,2.704,0.287,4.536,2.409,4.536c3.093,0,3.86-4.056,4.638-4.056c0.672,0,0.77,0.676,0.77,1.065     C113.373,65.609,110.862,70.923,104.879,70.923 M95.316,49.387c0-10.526-3.188-17.287-11.78-17.287     c-5.798,0-10.911,5.507-10.911,18.639c0,13.128,5.114,18.635,10.911,18.635c6.081,0,11.78-5.212,11.78-9.559V49.387z"/>
		</g>
		<g id="XMLID_2_">
			<path id="XMLID_15_" fill="#FFFFFF" d="M231.863,35.046l-0.967,2.803c-0.582,1.832-1.254,2.606-2.413,2.606     c-0.582,0-1.156-0.389-2.708-2.032c-1.443-1.639-4.536-3.86-7.24-3.86c-6.662,0-5.597,9.367-5.597,14.099v14.869     c0,2.319,0,4.732,1.832,5.019l2.708,0.389c0.574,0.094,0.869,0.287,0.869,0.578c0,0.487-0.778,0.774-2.319,0.774h-11.878     l-6.179,0.385c-1.065,0.098-1.545-0.193-1.545-0.672c0-0.197,0-0.582,0.287-0.582l4.54-0.578c1.16-0.197,2.413,0.094,2.413-4.831     c0-19.508,5.888-33.894,21.827-33.894c5.019,0,6.658,0.869,6.658,2.606C232.15,33.309,232.055,34.37,231.863,35.046"/>
			<path id="XMLID_14_" fill="#FFFFFF" d="M283.317,70.291h-21.052c-0.287,0-0.385-0.193-0.385-0.676s0.098-0.676,0.291-0.676h1.737     c2.7,0,4.056-1.737,4.056-5.31V42.195c0-6.085-4.249-8.309-8.404-8.309c-3.958,0-7.724,2.225-7.724,5.216v27.133     c0,1.356,0.967,2.221,2.221,2.413l2.417,0.389c0.193,0,0.193,0.385,0.193,0.578s-0.102,0.676-0.586,0.676h-19.02     c-0.385,0-0.483-0.287-0.483-0.77c0-0.483,0.098-0.676,0.389-0.676h1.836c2.803,0,4.245-1.741,4.245-5.314V10.232     c0-1.45-1.352-2.225-4.052-2.225h-1.258c-0.963,0-1.446-0.287-1.446-0.77c0-0.77,0.967-1.254,2.799-1.16l10.239,0.291     l8.687-0.291c1.061,0,1.545,0.291,1.545,0.873c0,0.48-0.193,0.77-0.676,0.77l-4.729,0.385c-1.836,0.197-2.319,0.291-2.319,4.54     v20.856c3.479-1.934,6.761-2.512,9.657-2.413c4.729,0.098,8.4,1.836,9.85,2.606l3.278-2.413c0.774-0.578,1.356-0.77,1.836-0.77     c0.582,0,0.873,0.385,0.873,1.254l-0.098,3.766v28.002c0,1.836,0.098,5.314,4.347,5.314h1.832c0.295,0,0.483,0.193,0.483,0.676     C283.895,70.004,283.706,70.291,283.317,70.291"/>
			<path fill="#FFFFFF" d="M313.043,71.063c-11.78,0-21.823-7.625-21.823-20.663c0-12.841,10.137-20.565,21.823-20.565     c11.682,0,21.823,7.625,21.823,20.565S324.724,71.063,313.043,71.063 M313.043,31.765c-5.794,0-10.723,5.503-10.723,18.635     s4.929,18.635,10.723,18.635c5.695,0,10.719-5.503,10.719-18.635C323.761,37.169,318.836,31.765,313.043,31.765"/>
			<path id="XMLID_11_" fill="#FFFFFF" d="M358.601,71.835c-1.352,0-3.282-0.193-6.179-0.869l-3.188-0.77     c-3.086-0.77-3.569-0.873-3.766-2.221l-1.545-9.948c-0.094-0.578,0-0.963,0.291-1.061l1.254-0.385     c0.287-0.094,0.389,0.193,0.873,0.869l4.052,6.47c2.512,4.056,5.503,5.794,9.272,5.794c2.991,0,8.4-0.578,8.4-6.761     c0-3.86-1.258-4.343-10.235-7.916c-12.456-4.925-13.325-7.24-13.325-12.94c0-5.986,8.691-12.747,18.926-12.747     c3.376,0,8.498,0.582,8.498,2.799c0,0.582-0.385,1.258-0.582,2.032l-0.963,2.7c-0.582,1.934-1.065,2.61-2.221,2.61     c-2.319,0-4.442-5.888-10.723-5.888c-2.799,0-6.273,1.446-6.273,5.405c0,2.61,2.991,4.151,8.785,5.986     c11.878,3.766,14.968,5.892,14.968,13.616C374.921,67.876,368.164,71.835,358.601,71.835"/>
		</g>
	</g>
	<g id="XMLID_1_">
		<path id="XMLID_10_" fill="#F7941E" d="M187.543,30.778H185.9c-2.028,0-4.438,0-4.438,5.306v27.396    c0,4.536,1.836,5.306,4.438,5.306h1.643c0.291,0,0.385,0.193,0.385,0.676c0,0.483,0,0.77-0.287,0.77h-22    c-0.283,0-0.283-0.287-0.283-0.77c0-0.483,0.09-0.676,0.381-0.676h1.643c2.602,0,4.438-0.77,4.438-5.306V36.085    c0-5.306-2.409-5.306-4.438-5.306h-1.643c-0.291,0-0.483-0.193-0.483-0.676c0-0.574,0.102-0.869,0.385-0.869h22    c0.287,0,0.385,0.295,0.385,0.869C188.027,30.586,187.834,30.778,187.543,30.778"/>
		<path fill="#F7941E" d="M142.273,70.347c-3.086,0-7.142-1.053-7.814-1.053c-0.385,0-0.578,0.381-0.578,1.152v11.289    c0,1.065,0.09,2.13,3.954,2.13h1.25c1.069,0,1.643,0.283,1.643,0.766c0,0.869-0.967,1.352-2.795,1.262l-10.907-0.295l-9.076,0.295    c-0.865,0-1.348-0.393-1.348-1.065c0-0.295,0.967-0.483,2.991-0.778l3.086-0.385c1.061-0.086,1.545-0.283,1.545-4.823v-46.13    c0-1.446-1.45-2.225-4.335-2.225h-1.16c-1.069,0-1.545-0.283-1.545-0.766c0-0.676,0.766-0.963,2.409-0.963h19.594    c17.464,0,25.478,9.744,25.478,20.074C164.666,59.542,157.233,70.347,142.273,70.347 M138.802,30.487h-4.155    c-0.574,0-0.766,0.778-0.766,1.647v28.375c0,5.306,2.311,8.007,8.49,8.007c6.556,0,11.002-6.847,11.002-19.398    C153.373,36.862,149.604,30.487,138.802,30.487"/>
	</g>
</g>
<rect fill="none" width="378.232" height="99.213"/>
</svg>